# xmcd
#
# Track frame offsets: 
#        150
#        16325
#        35280
#        49318
#        71080
#        85330
#        106173
#        130508
#        147090
#        170303
#        187218
#        202078
#        218678
#
# Disc length: 3203 seconds
#
# Revision: 2
# Processed by: cddbd v1.5.2PL0 Copyright (c) Steve Scherf et al.
# Submitted via: ExactAudioCopy v1.0b4
#
DISCID=b70c810d
DTITLE=荒井由実 - ユーミン・ヒストリー [Disc 2]
DYEAR=1990
DGENRE=J/Pop
TTITLE0=コバルト・アワー
TTITLE1=卒業写真
TTITLE2=ルージュの伝言
TTITLE3=航海日誌
TTITLE4=アフリカに行きたい
TTITLE5=さざ波
TTITLE6=さみしさのゆくえ
TTITLE7=中央フリーウェイ
TTITLE8=何もなかったように
TTITLE9=グッド・ラック・アンド・グッド・バイ
TTITLE10=晩夏 (ひとりの季節)
TTITLE11=あの日に帰りたい
TTITLE12=翳りゆく部屋
EXTD=
EXTT0=
EXTT1=
EXTT2=
EXTT3=
EXTT4=
EXTT5=
EXTT6=
EXTT7=
EXTT8=
EXTT9=
EXTT10=
EXTT11=
EXTT12=
PLAYORDER=
